<svg xmlns="http://www.w3.org/2000/svg" xmlns:xlink="http://www.w3.org/1999/xlink" width="500" zoomAndPan="magnify" viewBox="0 0 375 374.999991" height="500" preserveAspectRatio="xMidYMid meet" version="1.0"><defs><filter x="0%" y="0%" width="100%" height="100%" id="id1"><feColorMatrix values="0 0 0 0 1 0 0 0 0 1 0 0 0 0 1 0 0 0 1 0" color-interpolation-filters="sRGB"/></filter><mask id="id2"><g filter="url(#id1)"><rect x="-37.5" width="450" fill="#000000" y="-37.499999" height="449.999989" fill-opacity="0.6"/></g></mask><clipPath id="id3"><path d="M 0.878906 0.359375 L 214 0.359375 L 214 213.71875 L 0.878906 213.71875 Z M 0.878906 0.359375 " clip-rule="nonzero"/></clipPath><clipPath id="id4"><rect x="0" width="214" y="0" height="214"/></clipPath><mask id="id5"><g filter="url(#id1)"><rect x="-37.5" width="450" fill="#000000" y="-37.499999" height="449.999989" fill-opacity="0.6"/></g></mask><clipPath id="id6"><path d="M 0.640625 0.359375 L 214 0.359375 L 214 213.71875 L 0.640625 213.71875 Z M 0.640625 0.359375 " clip-rule="nonzero"/></clipPath><clipPath id="id7"><rect x="0" width="214" y="0" height="214"/></clipPath><mask id="id8"><g filter="url(#id1)"><rect x="-37.5" width="450" fill="#000000" y="-37.499999" height="449.999989" fill-opacity="0.6"/></g></mask><clipPath id="id9"><path d="M 0.558594 0.160156 L 213.679688 0.160156 L 213.679688 213.28125 L 0.558594 213.28125 Z M 0.558594 0.160156 " clip-rule="nonzero"/></clipPath><clipPath id="id10"><rect x="0" width="214" y="0" height="214"/></clipPath></defs><g mask="url(#id2)"><g transform="matrix(1, 0, 0, 1, 32, 27)"><g clip-path="url(#id4)"><g clip-path="url(#id3)"><path fill="#ff5757" d="M 107.386719 0.574219 C 48.570312 0.574219 0.886719 48.257812 0.886719 107.074219 C 0.886719 165.894531 48.570312 213.574219 107.386719 213.574219 C 166.207031 213.574219 213.886719 165.894531 213.886719 107.074219 C 213.886719 48.257812 166.207031 0.574219 107.386719 0.574219 " fill-opacity="1" fill-rule="nonzero"/></g></g></g></g><g mask="url(#id5)"><g transform="matrix(1, 0, 0, 1, 128, 27)"><g clip-path="url(#id7)"><g clip-path="url(#id6)"><path fill="#5271ff" d="M 107.378906 0.574219 C 48.558594 0.574219 0.878906 48.257812 0.878906 107.074219 C 0.878906 165.894531 48.558594 213.574219 107.378906 213.574219 C 166.195312 213.574219 213.878906 165.894531 213.878906 107.074219 C 213.878906 48.257812 166.195312 0.574219 107.378906 0.574219 " fill-opacity="1" fill-rule="nonzero"/></g></g></g></g><g mask="url(#id8)"><g transform="matrix(1, 0, 0, 1, 82, 134)"><g clip-path="url(#id10)"><g clip-path="url(#id9)"><path fill="#ffde59" d="M 107.101562 0.191406 C 48.285156 0.191406 0.601562 47.875 0.601562 106.691406 C 0.601562 165.511719 48.285156 213.191406 107.101562 213.191406 C 165.921875 213.191406 213.601562 165.511719 213.601562 106.691406 C 213.601562 47.875 165.921875 0.191406 107.101562 0.191406 " fill-opacity="1" fill-rule="nonzero"/></g></g></g></g></svg>