<svg xmlns="http://www.w3.org/2000/svg" xmlns:xlink="http://www.w3.org/1999/xlink" width="500" zoomAndPan="magnify" viewBox="0 0 375 374.999991" height="500" preserveAspectRatio="xMidYMid meet" version="1.0"><defs><filter x="0%" y="0%" width="100%" height="100%" id="id1"><feColorMatrix values="0 0 0 0 1 0 0 0 0 1 0 0 0 0 1 0 0 0 1 0" color-interpolation-filters="sRGB"/></filter><g/><mask id="id2"><g filter="url(#id1)"><rect x="-37.5" width="450" fill="#000000" y="-37.499999" height="449.999989" fill-opacity="0.6"/></g></mask><clipPath id="id3"><path d="M 0.121094 0.480469 L 88 0.480469 L 88 88.320312 L 0.121094 88.320312 Z M 0.121094 0.480469 " clip-rule="nonzero"/></clipPath><clipPath id="id4"><rect x="0" width="89" y="0" height="89"/></clipPath><mask id="id5"><g filter="url(#id1)"><rect x="-37.5" width="450" fill="#000000" y="-37.499999" height="449.999989" fill-opacity="0.6"/></g></mask><clipPath id="id6"><path d="M 0.480469 0.480469 L 88.558594 0.480469 L 88.558594 88.320312 L 0.480469 88.320312 Z M 0.480469 0.480469 " clip-rule="nonzero"/></clipPath><clipPath id="id7"><rect x="0" width="89" y="0" height="89"/></clipPath><mask id="id8"><g filter="url(#id1)"><rect x="-37.5" width="450" fill="#000000" y="-37.499999" height="449.999989" fill-opacity="0.6"/></g></mask><clipPath id="id9"><path d="M 0.519531 0.160156 L 88.601562 0.160156 L 88.601562 88.238281 L 0.519531 88.238281 Z M 0.519531 0.160156 " clip-rule="nonzero"/></clipPath><clipPath id="id10"><rect x="0" width="89" y="0" height="89"/></clipPath></defs><g mask="url(#id2)"><g transform="matrix(1, 0, 0, 1, 123, 78)"><g clip-path="url(#id4)"><g clip-path="url(#id3)"><path fill="#ff5757" d="M 44.117188 0.5625 C 19.882812 0.5625 0.242188 20.207031 0.242188 44.4375 C 0.242188 68.671875 19.882812 88.3125 44.117188 88.3125 C 68.347656 88.3125 87.992188 68.671875 87.992188 44.4375 C 87.992188 20.207031 68.347656 0.5625 44.117188 0.5625 " fill-opacity="1" fill-rule="nonzero"/></g></g></g></g><g mask="url(#id5)"><g transform="matrix(1, 0, 0, 1, 162, 78)"><g clip-path="url(#id7)"><g clip-path="url(#id6)"><path fill="#5271ff" d="M 44.570312 0.5625 C 20.339844 0.5625 0.695312 20.207031 0.695312 44.4375 C 0.695312 68.671875 20.339844 88.3125 44.570312 88.3125 C 68.804688 88.3125 88.445312 68.671875 88.445312 44.4375 C 88.445312 20.207031 68.804688 0.5625 44.570312 0.5625 " fill-opacity="1" fill-rule="nonzero"/></g></g></g></g><g mask="url(#id8)"><g transform="matrix(1, 0, 0, 1, 143, 122)"><g clip-path="url(#id10)"><g clip-path="url(#id9)"><path fill="#ffde59" d="M 44.550781 0.390625 C 20.320312 0.390625 0.675781 20.03125 0.675781 44.265625 C 0.675781 68.496094 20.320312 88.140625 44.550781 88.140625 C 68.78125 88.140625 88.425781 68.496094 88.425781 44.265625 C 88.425781 20.03125 68.78125 0.390625 44.550781 0.390625 " fill-opacity="1" fill-rule="nonzero"/></g></g></g></g><g fill="#000000" fill-opacity="1"><g transform="translate(141.653699, 241.98294)"><g><path d="M 2.421875 8.546875 L 2.421875 -20.6875 L 5.75 -20.6875 L 6.609375 -18.53125 C 7.441406 -19.363281 8.398438 -20.007812 9.484375 -20.46875 C 10.566406 -20.9375 11.785156 -21.171875 13.140625 -21.171875 C 14.578125 -21.171875 15.90625 -20.890625 17.125 -20.328125 C 18.351562 -19.765625 19.410156 -18.992188 20.296875 -18.015625 C 21.191406 -17.035156 21.890625 -15.882812 22.390625 -14.5625 C 22.898438 -13.238281 23.15625 -11.828125 23.15625 -10.328125 C 23.15625 -8.828125 22.898438 -7.414062 22.390625 -6.09375 C 21.890625 -4.769531 21.191406 -3.617188 20.296875 -2.640625 C 19.410156 -1.660156 18.351562 -0.890625 17.125 -0.328125 C 15.90625 0.234375 14.578125 0.515625 13.140625 0.515625 C 11.722656 0.515625 10.476562 0.28125 9.40625 -0.1875 C 8.34375 -0.664062 7.410156 -1.351562 6.609375 -2.25 L 6.609375 8.546875 Z M 12.78125 -17.375 C 11.945312 -17.375 11.15625 -17.234375 10.40625 -16.953125 C 9.65625 -16.679688 9 -16.25 8.4375 -15.65625 C 7.882812 -15.070312 7.445312 -14.335938 7.125 -13.453125 C 6.8125 -12.578125 6.65625 -11.535156 6.65625 -10.328125 C 6.65625 -9.023438 6.8125 -7.921875 7.125 -7.015625 C 7.445312 -6.109375 7.882812 -5.375 8.4375 -4.8125 C 9 -4.25 9.65625 -3.835938 10.40625 -3.578125 C 11.15625 -3.328125 11.945312 -3.203125 12.78125 -3.203125 C 13.625 -3.203125 14.414062 -3.382812 15.15625 -3.75 C 15.90625 -4.125 16.550781 -4.632812 17.09375 -5.28125 C 17.644531 -5.9375 18.078125 -6.695312 18.390625 -7.5625 C 18.710938 -8.425781 18.875 -9.347656 18.875 -10.328125 C 18.875 -11.304688 18.710938 -12.226562 18.390625 -13.09375 C 18.078125 -13.957031 17.644531 -14.703125 17.09375 -15.328125 C 16.550781 -15.960938 15.90625 -16.460938 15.15625 -16.828125 C 14.414062 -17.191406 13.625 -17.375 12.78125 -17.375 Z M 12.78125 -17.375 "/></g></g></g><g fill="#000000" fill-opacity="1"><g transform="translate(166.02415, 241.98294)"><g><path d="M 6.78125 0 L 2.59375 0 L 2.59375 -20.6875 L 6.734375 -20.6875 Z M 4.671875 -25.1875 C 3.921875 -25.1875 3.285156 -25.453125 2.765625 -25.984375 C 2.242188 -26.515625 1.984375 -27.15625 1.984375 -27.90625 C 1.984375 -28.65625 2.242188 -29.289062 2.765625 -29.8125 C 3.285156 -30.332031 3.921875 -30.59375 4.671875 -30.59375 C 5.421875 -30.59375 6.050781 -30.332031 6.5625 -29.8125 C 7.082031 -29.289062 7.34375 -28.65625 7.34375 -27.90625 C 7.34375 -27.15625 7.082031 -26.515625 6.5625 -25.984375 C 6.050781 -25.453125 5.421875 -25.1875 4.671875 -25.1875 Z M 4.671875 -25.1875 "/></g></g></g><g fill="#000000" fill-opacity="1"><g transform="translate(175.098255, 241.98294)"><g><path d="M 12.21875 0.515625 C 10.726562 0.515625 9.328125 0.234375 8.015625 -0.328125 C 6.703125 -0.890625 5.554688 -1.660156 4.578125 -2.640625 C 3.597656 -3.617188 2.828125 -4.769531 2.265625 -6.09375 C 1.703125 -7.414062 1.421875 -8.828125 1.421875 -10.328125 C 1.421875 -11.828125 1.6875 -13.238281 2.21875 -14.5625 C 2.757812 -15.882812 3.484375 -17.035156 4.390625 -18.015625 C 5.296875 -18.992188 6.351562 -19.765625 7.5625 -20.328125 C 8.769531 -20.890625 10.066406 -21.171875 11.453125 -21.171875 C 12.859375 -21.171875 14.160156 -20.925781 15.359375 -20.4375 C 16.554688 -19.945312 17.59375 -19.179688 18.46875 -18.140625 C 19.34375 -17.109375 20.023438 -15.789062 20.515625 -14.1875 C 21.003906 -12.59375 21.25 -10.6875 21.25 -8.46875 L 5.875 -8.46875 C 6.070312 -7.71875 6.382812 -7.019531 6.8125 -6.375 C 7.25 -5.726562 7.765625 -5.164062 8.359375 -4.6875 C 8.953125 -4.207031 9.613281 -3.835938 10.34375 -3.578125 C 11.082031 -3.328125 11.851562 -3.203125 12.65625 -3.203125 C 13.75 -3.203125 14.765625 -3.398438 15.703125 -3.796875 C 16.640625 -4.203125 17.441406 -4.738281 18.109375 -5.40625 L 20.6875 -2.8125 C 19.6875 -1.800781 18.457031 -0.992188 17 -0.390625 C 15.539062 0.210938 13.945312 0.515625 12.21875 0.515625 Z M 11.453125 -17.375 C 10.785156 -17.375 10.15625 -17.242188 9.5625 -16.984375 C 8.976562 -16.722656 8.429688 -16.359375 7.921875 -15.890625 C 7.421875 -15.429688 6.988281 -14.882812 6.625 -14.25 C 6.269531 -13.625 6.003906 -12.9375 5.828125 -12.1875 L 16.765625 -12.1875 C 16.703125 -12.875 16.539062 -13.535156 16.28125 -14.171875 C 16.03125 -14.804688 15.671875 -15.359375 15.203125 -15.828125 C 14.742188 -16.304688 14.203125 -16.679688 13.578125 -16.953125 C 12.960938 -17.234375 12.253906 -17.375 11.453125 -17.375 Z M 11.453125 -17.375 "/></g></g></g><g fill="#000000" fill-opacity="1"><g transform="translate(197.999568, 241.98294)"><g><path d="M 22.203125 -31.53125 L 22.203125 0 L 18.875 0 L 18.015625 -2.15625 C 17.179688 -1.320312 16.226562 -0.664062 15.15625 -0.1875 C 14.09375 0.28125 12.867188 0.515625 11.484375 0.515625 C 10.046875 0.515625 8.722656 0.234375 7.515625 -0.328125 C 6.304688 -0.890625 5.253906 -1.660156 4.359375 -2.640625 C 3.472656 -3.617188 2.773438 -4.769531 2.265625 -6.09375 C 1.765625 -7.414062 1.515625 -8.828125 1.515625 -10.328125 C 1.515625 -11.828125 1.765625 -13.238281 2.265625 -14.5625 C 2.773438 -15.882812 3.472656 -17.035156 4.359375 -18.015625 C 5.253906 -18.992188 6.304688 -19.765625 7.515625 -20.328125 C 8.722656 -20.890625 10.046875 -21.171875 11.484375 -21.171875 C 12.929688 -21.171875 14.1875 -20.929688 15.25 -20.453125 C 16.3125 -19.984375 17.234375 -19.316406 18.015625 -18.453125 L 18.015625 -31.53125 Z M 11.84375 -3.203125 C 12.707031 -3.203125 13.503906 -3.34375 14.234375 -3.625 C 14.972656 -3.914062 15.617188 -4.351562 16.171875 -4.9375 C 16.734375 -5.53125 17.171875 -6.273438 17.484375 -7.171875 C 17.804688 -8.066406 17.96875 -9.117188 17.96875 -10.328125 C 17.96875 -11.617188 17.804688 -12.710938 17.484375 -13.609375 C 17.171875 -14.503906 16.734375 -15.234375 16.171875 -15.796875 C 15.617188 -16.359375 14.972656 -16.757812 14.234375 -17 C 13.503906 -17.25 12.707031 -17.375 11.84375 -17.375 C 11 -17.375 10.203125 -17.191406 9.453125 -16.828125 C 8.710938 -16.460938 8.066406 -15.960938 7.515625 -15.328125 C 6.972656 -14.703125 6.539062 -13.957031 6.21875 -13.09375 C 5.90625 -12.226562 5.75 -11.304688 5.75 -10.328125 C 5.75 -9.347656 5.90625 -8.425781 6.21875 -7.5625 C 6.539062 -6.695312 6.972656 -5.9375 7.515625 -5.28125 C 8.066406 -4.632812 8.710938 -4.125 9.453125 -3.75 C 10.203125 -3.382812 11 -3.203125 11.84375 -3.203125 Z M 11.84375 -3.203125 "/></g></g></g><g fill="#000000" fill-opacity="1"><g transform="translate(223.018166, 241.98294)"><g><path d="M 1.859375 -2.25 C 1.859375 -3 2.113281 -3.640625 2.625 -4.171875 C 3.144531 -4.703125 3.78125 -4.96875 4.53125 -4.96875 C 5.28125 -4.96875 5.914062 -4.703125 6.4375 -4.171875 C 6.957031 -3.640625 7.21875 -3 7.21875 -2.25 C 7.21875 -1.5 6.957031 -0.863281 6.4375 -0.34375 C 5.914062 0.175781 5.28125 0.4375 4.53125 0.4375 C 3.78125 0.4375 3.144531 0.175781 2.625 -0.34375 C 2.113281 -0.863281 1.859375 -1.5 1.859375 -2.25 Z M 1.859375 -2.25 "/></g></g></g><g fill="#000000" fill-opacity="1"><g transform="translate(149.732144, 266.343066)"><g><path d="M 3.65625 0 C 3.601562 -0.09375 3.5625 -0.265625 3.53125 -0.515625 C 3.144531 -0.109375 2.679688 0.09375 2.140625 0.09375 C 1.660156 0.09375 1.265625 -0.0390625 0.953125 -0.3125 C 0.648438 -0.59375 0.5 -0.941406 0.5 -1.359375 C 0.5 -1.867188 0.691406 -2.265625 1.078125 -2.546875 C 1.460938 -2.828125 2.003906 -2.96875 2.703125 -2.96875 L 3.53125 -2.96875 L 3.53125 -3.359375 C 3.53125 -3.648438 3.441406 -3.878906 3.265625 -4.046875 C 3.085938 -4.222656 2.828125 -4.3125 2.484375 -4.3125 C 2.191406 -4.3125 1.941406 -4.234375 1.734375 -4.078125 C 1.535156 -3.929688 1.4375 -3.75 1.4375 -3.53125 L 0.59375 -3.53125 C 0.59375 -3.78125 0.675781 -4.019531 0.84375 -4.25 C 1.019531 -4.476562 1.253906 -4.65625 1.546875 -4.78125 C 1.847656 -4.914062 2.175781 -4.984375 2.53125 -4.984375 C 3.101562 -4.984375 3.546875 -4.84375 3.859375 -4.5625 C 4.179688 -4.28125 4.347656 -3.890625 4.359375 -3.390625 L 4.359375 -1.140625 C 4.359375 -0.691406 4.414062 -0.335938 4.53125 -0.078125 L 4.53125 0 Z M 2.265625 -0.640625 C 2.523438 -0.640625 2.769531 -0.707031 3 -0.84375 C 3.238281 -0.976562 3.414062 -1.15625 3.53125 -1.375 L 3.53125 -2.375 L 2.875 -2.375 C 1.84375 -2.375 1.328125 -2.070312 1.328125 -1.46875 C 1.328125 -1.207031 1.414062 -1.003906 1.59375 -0.859375 C 1.769531 -0.710938 1.992188 -0.640625 2.265625 -0.640625 Z M 2.265625 -0.640625 "/></g></g></g><g fill="#000000" fill-opacity="1"><g transform="translate(155.463134, 266.343066)"><g><path d="M 0.4375 -2.484375 C 0.4375 -3.234375 0.613281 -3.835938 0.96875 -4.296875 C 1.320312 -4.753906 1.785156 -4.984375 2.359375 -4.984375 C 2.929688 -4.984375 3.382812 -4.785156 3.71875 -4.390625 L 3.71875 -6.953125 L 4.5625 -6.953125 L 4.5625 0 L 3.796875 0 L 3.75 -0.53125 C 3.414062 -0.113281 2.953125 0.09375 2.359375 0.09375 C 1.785156 0.09375 1.320312 -0.132812 0.96875 -0.59375 C 0.613281 -1.0625 0.4375 -1.671875 0.4375 -2.421875 Z M 1.265625 -2.390625 C 1.265625 -1.835938 1.378906 -1.40625 1.609375 -1.09375 C 1.835938 -0.78125 2.15625 -0.625 2.5625 -0.625 C 3.09375 -0.625 3.476562 -0.859375 3.71875 -1.328125 L 3.71875 -3.578125 C 3.46875 -4.046875 3.082031 -4.28125 2.5625 -4.28125 C 2.15625 -4.28125 1.835938 -4.117188 1.609375 -3.796875 C 1.378906 -3.484375 1.265625 -3.015625 1.265625 -2.390625 Z M 1.265625 -2.390625 "/></g></g></g><g fill="#000000" fill-opacity="1"><g transform="translate(161.37949, 266.343066)"><g><path d="M 1.5 -4.890625 L 1.5 0.5625 C 1.5 1.507812 1.070312 1.984375 0.21875 1.984375 C 0.03125 1.984375 -0.140625 1.953125 -0.296875 1.890625 L -0.296875 1.21875 C -0.203125 1.25 -0.0703125 1.265625 0.09375 1.265625 C 0.269531 1.265625 0.40625 1.210938 0.5 1.109375 C 0.601562 1.003906 0.65625 0.828125 0.65625 0.578125 L 0.65625 -4.890625 Z M 0.578125 -6.1875 C 0.578125 -6.320312 0.617188 -6.4375 0.703125 -6.53125 C 0.785156 -6.625 0.90625 -6.671875 1.0625 -6.671875 C 1.226562 -6.671875 1.351562 -6.625 1.4375 -6.53125 C 1.519531 -6.4375 1.5625 -6.320312 1.5625 -6.1875 C 1.5625 -6.050781 1.519531 -5.9375 1.4375 -5.84375 C 1.351562 -5.757812 1.226562 -5.71875 1.0625 -5.71875 C 0.894531 -5.71875 0.769531 -5.757812 0.6875 -5.84375 C 0.613281 -5.9375 0.578125 -6.050781 0.578125 -6.1875 Z M 0.578125 -6.1875 "/></g></g></g><g fill="#000000" fill-opacity="1"><g transform="translate(164.284771, 266.343066)"><g><path d="M 2.671875 0.09375 C 2.003906 0.09375 1.460938 -0.125 1.046875 -0.5625 C 0.628906 -1 0.421875 -1.582031 0.421875 -2.3125 L 0.421875 -2.46875 C 0.421875 -2.945312 0.515625 -3.378906 0.703125 -3.765625 C 0.890625 -4.148438 1.148438 -4.445312 1.484375 -4.65625 C 1.816406 -4.875 2.175781 -4.984375 2.5625 -4.984375 C 3.195312 -4.984375 3.691406 -4.773438 4.046875 -4.359375 C 4.398438 -3.941406 4.578125 -3.34375 4.578125 -2.5625 L 4.578125 -2.203125 L 1.25 -2.203125 C 1.269531 -1.722656 1.410156 -1.332031 1.671875 -1.03125 C 1.941406 -0.738281 2.285156 -0.59375 2.703125 -0.59375 C 3.003906 -0.59375 3.253906 -0.648438 3.453125 -0.765625 C 3.660156 -0.890625 3.84375 -1.050781 4 -1.25 L 4.515625 -0.859375 C 4.097656 -0.222656 3.484375 0.09375 2.671875 0.09375 Z M 2.5625 -4.296875 C 2.21875 -4.296875 1.929688 -4.171875 1.703125 -3.921875 C 1.472656 -3.679688 1.332031 -3.335938 1.28125 -2.890625 L 3.734375 -2.890625 L 3.734375 -2.953125 C 3.710938 -3.378906 3.597656 -3.707031 3.390625 -3.9375 C 3.179688 -4.175781 2.90625 -4.296875 2.5625 -4.296875 Z M 2.5625 -4.296875 "/></g></g></g><g fill="#000000" fill-opacity="1"><g transform="translate(169.884649, 266.343066)"><g><path d="M 2.59375 -0.59375 C 2.894531 -0.59375 3.15625 -0.679688 3.375 -0.859375 C 3.601562 -1.046875 3.726562 -1.273438 3.75 -1.546875 L 4.546875 -1.546875 C 4.523438 -1.265625 4.425781 -0.992188 4.25 -0.734375 C 4.070312 -0.484375 3.832031 -0.28125 3.53125 -0.125 C 3.238281 0.0195312 2.925781 0.09375 2.59375 0.09375 C 1.925781 0.09375 1.394531 -0.128906 1 -0.578125 C 0.613281 -1.023438 0.421875 -1.632812 0.421875 -2.40625 L 0.421875 -2.546875 C 0.421875 -3.015625 0.503906 -3.4375 0.671875 -3.8125 C 0.847656 -4.1875 1.097656 -4.472656 1.421875 -4.671875 C 1.753906 -4.878906 2.144531 -4.984375 2.59375 -4.984375 C 3.144531 -4.984375 3.597656 -4.816406 3.953125 -4.484375 C 4.316406 -4.160156 4.515625 -3.738281 4.546875 -3.21875 L 3.75 -3.21875 C 3.726562 -3.53125 3.609375 -3.785156 3.390625 -3.984375 C 3.171875 -4.191406 2.90625 -4.296875 2.59375 -4.296875 C 2.164062 -4.296875 1.832031 -4.140625 1.59375 -3.828125 C 1.363281 -3.523438 1.25 -3.085938 1.25 -2.515625 L 1.25 -2.359375 C 1.25 -1.785156 1.363281 -1.347656 1.59375 -1.046875 C 1.832031 -0.742188 2.164062 -0.59375 2.59375 -0.59375 Z M 2.59375 -0.59375 "/></g></g></g><g fill="#000000" fill-opacity="1"><g transform="translate(175.425751, 266.343066)"><g><path d="M 1.765625 -6.078125 L 1.765625 -4.890625 L 2.6875 -4.890625 L 2.6875 -4.25 L 1.765625 -4.25 L 1.765625 -1.21875 C 1.765625 -1.019531 1.804688 -0.867188 1.890625 -0.765625 C 1.972656 -0.671875 2.113281 -0.625 2.3125 -0.625 C 2.40625 -0.625 2.535156 -0.640625 2.703125 -0.671875 L 2.703125 0 C 2.484375 0.0625 2.269531 0.09375 2.0625 0.09375 C 1.6875 0.09375 1.40625 -0.0195312 1.21875 -0.25 C 1.03125 -0.476562 0.9375 -0.800781 0.9375 -1.21875 L 0.9375 -4.25 L 0.046875 -4.25 L 0.046875 -4.890625 L 0.9375 -4.890625 L 0.9375 -6.078125 Z M 1.765625 -6.078125 "/></g></g></g><g fill="#000000" fill-opacity="1"><g transform="translate(179.144837, 266.343066)"><g><path d="M 1.546875 0 L 0.703125 0 L 0.703125 -4.890625 L 1.546875 -4.890625 Z M 0.640625 -6.1875 C 0.640625 -6.320312 0.679688 -6.4375 0.765625 -6.53125 C 0.847656 -6.625 0.96875 -6.671875 1.125 -6.671875 C 1.289062 -6.671875 1.414062 -6.625 1.5 -6.53125 C 1.582031 -6.4375 1.625 -6.320312 1.625 -6.1875 C 1.625 -6.050781 1.582031 -5.9375 1.5 -5.84375 C 1.414062 -5.757812 1.289062 -5.71875 1.125 -5.71875 C 0.96875 -5.71875 0.847656 -5.757812 0.765625 -5.84375 C 0.679688 -5.9375 0.640625 -6.050781 0.640625 -6.1875 Z M 0.640625 -6.1875 "/></g></g></g><g fill="#000000" fill-opacity="1"><g transform="translate(182.086287, 266.343066)"><g><path d="M 2.25 -1.140625 L 3.46875 -4.890625 L 4.3125 -4.890625 L 2.5625 0 L 1.921875 0 L 0.15625 -4.890625 L 1 -4.890625 Z M 2.25 -1.140625 "/></g></g></g><g fill="#000000" fill-opacity="1"><g transform="translate(187.265699, 266.343066)"><g><path d="M 2.671875 0.09375 C 2.003906 0.09375 1.460938 -0.125 1.046875 -0.5625 C 0.628906 -1 0.421875 -1.582031 0.421875 -2.3125 L 0.421875 -2.46875 C 0.421875 -2.945312 0.515625 -3.378906 0.703125 -3.765625 C 0.890625 -4.148438 1.148438 -4.445312 1.484375 -4.65625 C 1.816406 -4.875 2.175781 -4.984375 2.5625 -4.984375 C 3.195312 -4.984375 3.691406 -4.773438 4.046875 -4.359375 C 4.398438 -3.941406 4.578125 -3.34375 4.578125 -2.5625 L 4.578125 -2.203125 L 1.25 -2.203125 C 1.269531 -1.722656 1.410156 -1.332031 1.671875 -1.03125 C 1.941406 -0.738281 2.285156 -0.59375 2.703125 -0.59375 C 3.003906 -0.59375 3.253906 -0.648438 3.453125 -0.765625 C 3.660156 -0.890625 3.84375 -1.050781 4 -1.25 L 4.515625 -0.859375 C 4.097656 -0.222656 3.484375 0.09375 2.671875 0.09375 Z M 2.5625 -4.296875 C 2.21875 -4.296875 1.929688 -4.171875 1.703125 -3.921875 C 1.472656 -3.679688 1.332031 -3.335938 1.28125 -2.890625 L 3.734375 -2.890625 L 3.734375 -2.953125 C 3.710938 -3.378906 3.597656 -3.707031 3.390625 -3.9375 C 3.179688 -4.175781 2.90625 -4.296875 2.5625 -4.296875 Z M 2.5625 -4.296875 "/></g></g></g><g fill="#000000" fill-opacity="1"><g transform="translate(192.865576, 266.343066)"><g/></g></g><g fill="#000000" fill-opacity="1"><g transform="translate(195.852237, 266.343066)"><g><path d="M 2.359375 -6.84375 L 1.5 -6.84375 L 1.5 0.71875 L 2.359375 0.71875 L 2.359375 1.40625 L 0.65625 1.40625 L 0.65625 -7.53125 L 2.359375 -7.53125 Z M 2.359375 -6.84375 "/></g></g></g><g fill="#000000" fill-opacity="1"><g transform="translate(199.00166, 266.343066)"><g><path d="M 0.796875 0.5625 L 0.078125 0.5625 L 2.828125 -6.59375 L 3.546875 -6.59375 Z M 0.796875 0.5625 "/></g></g></g><g fill="#000000" fill-opacity="1"><g transform="translate(203.511944, 266.343066)"><g><path d="M 4.765625 -2.390625 C 4.765625 -1.648438 4.59375 -1.050781 4.25 -0.59375 C 3.914062 -0.132812 3.457031 0.09375 2.875 0.09375 C 2.28125 0.09375 1.8125 -0.09375 1.46875 -0.46875 L 1.46875 1.875 L 0.640625 1.875 L 0.640625 -4.890625 L 1.390625 -4.890625 L 1.4375 -4.359375 C 1.78125 -4.773438 2.253906 -4.984375 2.859375 -4.984375 C 3.441406 -4.984375 3.90625 -4.757812 4.25 -4.3125 C 4.59375 -3.875 4.765625 -3.257812 4.765625 -2.46875 Z M 3.9375 -2.484375 C 3.9375 -3.035156 3.816406 -3.472656 3.578125 -3.796875 C 3.335938 -4.117188 3.015625 -4.28125 2.609375 -4.28125 C 2.097656 -4.28125 1.71875 -4.050781 1.46875 -3.59375 L 1.46875 -1.265625 C 1.71875 -0.816406 2.101562 -0.59375 2.625 -0.59375 C 3.019531 -0.59375 3.335938 -0.75 3.578125 -1.0625 C 3.816406 -1.382812 3.9375 -1.859375 3.9375 -2.484375 Z M 3.9375 -2.484375 "/></g></g></g><g fill="#000000" fill-opacity="1"><g transform="translate(209.401174, 266.343066)"><g><path d="M 1.546875 0 L 0.703125 0 L 0.703125 -4.890625 L 1.546875 -4.890625 Z M 2.6875 -5.890625 L -0.359375 -5.890625 L -0.359375 -6.53125 L 2.6875 -6.53125 Z M 2.6875 -5.890625 "/></g></g></g><g fill="#000000" fill-opacity="1"><g transform="translate(212.383314, 266.343066)"><g><path d="M 0.4375 -2.484375 C 0.4375 -3.234375 0.613281 -3.835938 0.96875 -4.296875 C 1.320312 -4.753906 1.785156 -4.984375 2.359375 -4.984375 C 2.929688 -4.984375 3.382812 -4.785156 3.71875 -4.390625 L 3.71875 -6.953125 L 4.5625 -6.953125 L 4.5625 0 L 3.796875 0 L 3.75 -0.53125 C 3.414062 -0.113281 2.953125 0.09375 2.359375 0.09375 C 1.785156 0.09375 1.320312 -0.132812 0.96875 -0.59375 C 0.613281 -1.0625 0.4375 -1.671875 0.4375 -2.421875 Z M 1.265625 -2.390625 C 1.265625 -1.835938 1.378906 -1.40625 1.609375 -1.09375 C 1.835938 -0.78125 2.15625 -0.625 2.5625 -0.625 C 3.09375 -0.625 3.476562 -0.859375 3.71875 -1.328125 L 3.71875 -3.578125 C 3.46875 -4.046875 3.082031 -4.28125 2.5625 -4.28125 C 2.15625 -4.28125 1.835938 -4.117188 1.609375 -3.796875 C 1.378906 -3.484375 1.265625 -3.015625 1.265625 -2.390625 Z M 1.265625 -2.390625 "/></g></g></g><g fill="#000000" fill-opacity="1"><g transform="translate(218.299671, 266.343066)"><g><path d="M 0.796875 0.5625 L 0.078125 0.5625 L 2.828125 -6.59375 L 3.546875 -6.59375 Z M 0.796875 0.5625 "/></g></g></g><g fill="#000000" fill-opacity="1"><g transform="translate(222.809955, 266.343066)"><g><path d="M 0.046875 -7.53125 L 1.75 -7.53125 L 1.75 1.40625 L 0.046875 1.40625 L 0.046875 0.71875 L 0.90625 0.71875 L 0.90625 -6.84375 L 0.046875 -6.84375 Z M 0.046875 -7.53125 "/></g></g></g><g fill="#000000" fill-opacity="1"><g transform="translate(119.909534, 280.231991)"><g><path d="M 1.46875 -4.296875 C 1.84375 -4.753906 2.328125 -4.984375 2.921875 -4.984375 C 3.953125 -4.984375 4.472656 -4.398438 4.484375 -3.234375 L 4.484375 0 L 3.640625 0 L 3.640625 -3.234375 C 3.640625 -3.585938 3.5625 -3.847656 3.40625 -4.015625 C 3.25 -4.191406 3.003906 -4.28125 2.671875 -4.28125 C 2.390625 -4.28125 2.144531 -4.207031 1.9375 -4.0625 C 1.738281 -3.914062 1.582031 -3.722656 1.46875 -3.484375 L 1.46875 0 L 0.640625 0 L 0.640625 -6.953125 L 1.46875 -6.953125 Z M 1.46875 -4.296875 "/></g></g></g><g fill="#000000" fill-opacity="1"><g transform="translate(125.70382, 280.231991)"><g><path d="M 3.65625 0 C 3.601562 -0.09375 3.5625 -0.265625 3.53125 -0.515625 C 3.144531 -0.109375 2.679688 0.09375 2.140625 0.09375 C 1.660156 0.09375 1.265625 -0.0390625 0.953125 -0.3125 C 0.648438 -0.59375 0.5 -0.941406 0.5 -1.359375 C 0.5 -1.867188 0.691406 -2.265625 1.078125 -2.546875 C 1.460938 -2.828125 2.003906 -2.96875 2.703125 -2.96875 L 3.53125 -2.96875 L 3.53125 -3.359375 C 3.53125 -3.648438 3.441406 -3.878906 3.265625 -4.046875 C 3.085938 -4.222656 2.828125 -4.3125 2.484375 -4.3125 C 2.191406 -4.3125 1.941406 -4.234375 1.734375 -4.078125 C 1.535156 -3.929688 1.4375 -3.75 1.4375 -3.53125 L 0.59375 -3.53125 C 0.59375 -3.78125 0.675781 -4.019531 0.84375 -4.25 C 1.019531 -4.476562 1.253906 -4.65625 1.546875 -4.78125 C 1.847656 -4.914062 2.175781 -4.984375 2.53125 -4.984375 C 3.101562 -4.984375 3.546875 -4.84375 3.859375 -4.5625 C 4.179688 -4.28125 4.347656 -3.890625 4.359375 -3.390625 L 4.359375 -1.140625 C 4.359375 -0.691406 4.414062 -0.335938 4.53125 -0.078125 L 4.53125 0 Z M 2.265625 -0.640625 C 2.523438 -0.640625 2.769531 -0.707031 3 -0.84375 C 3.238281 -0.976562 3.414062 -1.15625 3.53125 -1.375 L 3.53125 -2.375 L 2.875 -2.375 C 1.84375 -2.375 1.328125 -2.070312 1.328125 -1.46875 C 1.328125 -1.207031 1.414062 -1.003906 1.59375 -0.859375 C 1.769531 -0.710938 1.992188 -0.640625 2.265625 -0.640625 Z M 2.265625 -0.640625 "/></g></g></g><g fill="#000000" fill-opacity="1"><g transform="translate(131.434811, 280.231991)"><g><path d="M 2.25 -1.140625 L 3.46875 -4.890625 L 4.3125 -4.890625 L 2.5625 0 L 1.921875 0 L 0.15625 -4.890625 L 1 -4.890625 Z M 2.25 -1.140625 "/></g></g></g><g fill="#000000" fill-opacity="1"><g transform="translate(136.614222, 280.231991)"><g><path d="M 1.546875 0 L 0.703125 0 L 0.703125 -4.890625 L 1.546875 -4.890625 Z M 0.640625 -6.1875 C 0.640625 -6.320312 0.679688 -6.4375 0.765625 -6.53125 C 0.847656 -6.625 0.96875 -6.671875 1.125 -6.671875 C 1.289062 -6.671875 1.414062 -6.625 1.5 -6.53125 C 1.582031 -6.4375 1.625 -6.320312 1.625 -6.1875 C 1.625 -6.050781 1.582031 -5.9375 1.5 -5.84375 C 1.414062 -5.757812 1.289062 -5.71875 1.125 -5.71875 C 0.96875 -5.71875 0.847656 -5.757812 0.765625 -5.84375 C 0.679688 -5.9375 0.640625 -6.050781 0.640625 -6.1875 Z M 0.640625 -6.1875 "/></g></g></g><g fill="#000000" fill-opacity="1"><g transform="translate(139.555672, 280.231991)"><g><path d="M 1.421875 -4.890625 L 1.453125 -4.28125 C 1.828125 -4.75 2.316406 -4.984375 2.921875 -4.984375 C 3.953125 -4.984375 4.472656 -4.398438 4.484375 -3.234375 L 4.484375 0 L 3.640625 0 L 3.640625 -3.234375 C 3.640625 -3.585938 3.5625 -3.847656 3.40625 -4.015625 C 3.25 -4.191406 3.003906 -4.28125 2.671875 -4.28125 C 2.390625 -4.28125 2.144531 -4.207031 1.9375 -4.0625 C 1.738281 -3.914062 1.582031 -3.722656 1.46875 -3.484375 L 1.46875 0 L 0.640625 0 L 0.640625 -4.890625 Z M 1.421875 -4.890625 "/></g></g></g><g fill="#000000" fill-opacity="1"><g transform="translate(145.359001, 280.231991)"><g><path d="M 0.4375 -2.484375 C 0.4375 -3.253906 0.613281 -3.863281 0.96875 -4.3125 C 1.320312 -4.757812 1.785156 -4.984375 2.359375 -4.984375 C 2.960938 -4.984375 3.429688 -4.773438 3.765625 -4.359375 L 3.8125 -4.890625 L 4.5625 -4.890625 L 4.5625 -0.125 C 4.5625 0.507812 4.375 1.007812 4 1.375 C 3.625 1.738281 3.125 1.921875 2.5 1.921875 C 2.144531 1.921875 1.796875 1.84375 1.453125 1.6875 C 1.117188 1.539062 0.863281 1.335938 0.6875 1.078125 L 1.125 0.578125 C 1.476562 1.023438 1.914062 1.25 2.4375 1.25 C 2.84375 1.25 3.160156 1.132812 3.390625 0.90625 C 3.617188 0.675781 3.734375 0.351562 3.734375 -0.0625 L 3.734375 -0.484375 C 3.390625 -0.0976562 2.929688 0.09375 2.359375 0.09375 C 1.785156 0.09375 1.320312 -0.132812 0.96875 -0.59375 C 0.613281 -1.0625 0.4375 -1.691406 0.4375 -2.484375 Z M 1.28125 -2.390625 C 1.28125 -1.835938 1.390625 -1.40625 1.609375 -1.09375 C 1.835938 -0.78125 2.15625 -0.625 2.5625 -0.625 C 3.09375 -0.625 3.484375 -0.863281 3.734375 -1.34375 L 3.734375 -3.578125 C 3.472656 -4.046875 3.085938 -4.28125 2.578125 -4.28125 C 2.171875 -4.28125 1.851562 -4.117188 1.625 -3.796875 C 1.394531 -3.484375 1.28125 -3.015625 1.28125 -2.390625 Z M 1.28125 -2.390625 "/></g></g></g><g fill="#000000" fill-opacity="1"><g transform="translate(151.248231, 280.231991)"><g/></g></g><g fill="#000000" fill-opacity="1"><g transform="translate(154.234892, 280.231991)"><g><path d="M 1.765625 -6.078125 L 1.765625 -4.890625 L 2.6875 -4.890625 L 2.6875 -4.25 L 1.765625 -4.25 L 1.765625 -1.21875 C 1.765625 -1.019531 1.804688 -0.867188 1.890625 -0.765625 C 1.972656 -0.671875 2.113281 -0.625 2.3125 -0.625 C 2.40625 -0.625 2.535156 -0.640625 2.703125 -0.671875 L 2.703125 0 C 2.484375 0.0625 2.269531 0.09375 2.0625 0.09375 C 1.6875 0.09375 1.40625 -0.0195312 1.21875 -0.25 C 1.03125 -0.476562 0.9375 -0.800781 0.9375 -1.21875 L 0.9375 -4.25 L 0.046875 -4.25 L 0.046875 -4.890625 L 0.9375 -4.890625 L 0.9375 -6.078125 Z M 1.765625 -6.078125 "/></g></g></g><g fill="#000000" fill-opacity="1"><g transform="translate(157.953978, 280.231991)"><g><path d="M 4.96875 -1.15625 L 5.90625 -4.890625 L 6.75 -4.890625 L 5.328125 0 L 4.640625 0 L 3.453125 -3.703125 L 2.296875 0 L 1.609375 0 L 0.1875 -4.890625 L 1.03125 -4.890625 L 1.984375 -1.234375 L 3.125 -4.890625 L 3.8125 -4.890625 Z M 4.96875 -1.15625 "/></g></g></g><g fill="#000000" fill-opacity="1"><g transform="translate(165.60645, 280.231991)"><g><path d="M 0.40625 -2.5 C 0.40625 -2.976562 0.5 -3.40625 0.6875 -3.78125 C 0.882812 -4.164062 1.148438 -4.460938 1.484375 -4.671875 C 1.816406 -4.878906 2.203125 -4.984375 2.640625 -4.984375 C 3.304688 -4.984375 3.84375 -4.75 4.25 -4.28125 C 4.664062 -3.820312 4.875 -3.210938 4.875 -2.453125 L 4.875 -2.390625 C 4.875 -1.910156 4.78125 -1.484375 4.59375 -1.109375 C 4.414062 -0.734375 4.15625 -0.4375 3.8125 -0.21875 C 3.46875 -0.0078125 3.078125 0.09375 2.640625 0.09375 C 1.972656 0.09375 1.429688 -0.132812 1.015625 -0.59375 C 0.609375 -1.0625 0.40625 -1.675781 0.40625 -2.4375 Z M 1.25 -2.390625 C 1.25 -1.847656 1.375 -1.410156 1.625 -1.078125 C 1.882812 -0.753906 2.222656 -0.59375 2.640625 -0.59375 C 3.066406 -0.59375 3.40625 -0.757812 3.65625 -1.09375 C 3.90625 -1.425781 4.03125 -1.894531 4.03125 -2.5 C 4.03125 -3.03125 3.898438 -3.460938 3.640625 -3.796875 C 3.390625 -4.128906 3.054688 -4.296875 2.640625 -4.296875 C 2.222656 -4.296875 1.882812 -4.128906 1.625 -3.796875 C 1.375 -3.472656 1.25 -3.003906 1.25 -2.390625 Z M 1.25 -2.390625 "/></g></g></g><g fill="#000000" fill-opacity="1"><g transform="translate(171.581581, 280.231991)"><g/></g></g><g fill="#000000" fill-opacity="1"><g transform="translate(174.568243, 280.231991)"><g><path d="M 0.40625 -2.5 C 0.40625 -2.976562 0.5 -3.40625 0.6875 -3.78125 C 0.882812 -4.164062 1.148438 -4.460938 1.484375 -4.671875 C 1.816406 -4.878906 2.203125 -4.984375 2.640625 -4.984375 C 3.304688 -4.984375 3.84375 -4.75 4.25 -4.28125 C 4.664062 -3.820312 4.875 -3.210938 4.875 -2.453125 L 4.875 -2.390625 C 4.875 -1.910156 4.78125 -1.484375 4.59375 -1.109375 C 4.414062 -0.734375 4.15625 -0.4375 3.8125 -0.21875 C 3.46875 -0.0078125 3.078125 0.09375 2.640625 0.09375 C 1.972656 0.09375 1.429688 -0.132812 1.015625 -0.59375 C 0.609375 -1.0625 0.40625 -1.675781 0.40625 -2.4375 Z M 1.25 -2.390625 C 1.25 -1.847656 1.375 -1.410156 1.625 -1.078125 C 1.882812 -0.753906 2.222656 -0.59375 2.640625 -0.59375 C 3.066406 -0.59375 3.40625 -0.757812 3.65625 -1.09375 C 3.90625 -1.425781 4.03125 -1.894531 4.03125 -2.5 C 4.03125 -3.03125 3.898438 -3.460938 3.640625 -3.796875 C 3.390625 -4.128906 3.054688 -4.296875 2.640625 -4.296875 C 2.222656 -4.296875 1.882812 -4.128906 1.625 -3.796875 C 1.375 -3.472656 1.25 -3.003906 1.25 -2.390625 Z M 1.25 -2.390625 "/></g></g></g><g fill="#000000" fill-opacity="1"><g transform="translate(180.543374, 280.231991)"><g><path d="M 3 -4.140625 C 2.875 -4.160156 2.738281 -4.171875 2.59375 -4.171875 C 2.039062 -4.171875 1.664062 -3.9375 1.46875 -3.46875 L 1.46875 0 L 0.640625 0 L 0.640625 -4.890625 L 1.453125 -4.890625 L 1.46875 -4.328125 C 1.738281 -4.765625 2.125 -4.984375 2.625 -4.984375 C 2.789062 -4.984375 2.914062 -4.960938 3 -4.921875 Z M 3 -4.140625 "/></g></g></g><g fill="#000000" fill-opacity="1"><g transform="translate(184.370967, 280.231991)"><g/></g></g><g fill="#000000" fill-opacity="1"><g transform="translate(187.357628, 280.231991)"><g><path d="M 1.421875 -4.890625 L 1.4375 -4.359375 C 1.800781 -4.773438 2.285156 -4.984375 2.890625 -4.984375 C 3.578125 -4.984375 4.046875 -4.722656 4.296875 -4.203125 C 4.453125 -4.429688 4.660156 -4.617188 4.921875 -4.765625 C 5.191406 -4.910156 5.503906 -4.984375 5.859375 -4.984375 C 6.929688 -4.984375 7.472656 -4.414062 7.484375 -3.28125 L 7.484375 0 L 6.65625 0 L 6.65625 -3.234375 C 6.65625 -3.578125 6.570312 -3.835938 6.40625 -4.015625 C 6.25 -4.191406 5.984375 -4.28125 5.609375 -4.28125 C 5.296875 -4.28125 5.035156 -4.1875 4.828125 -4 C 4.628906 -3.8125 4.515625 -3.5625 4.484375 -3.25 L 4.484375 0 L 3.640625 0 L 3.640625 -3.203125 C 3.640625 -3.921875 3.289062 -4.28125 2.59375 -4.28125 C 2.039062 -4.28125 1.664062 -4.046875 1.46875 -3.578125 L 1.46875 0 L 0.625 0 L 0.625 -4.890625 Z M 1.421875 -4.890625 "/></g></g></g><g fill="#000000" fill-opacity="1"><g transform="translate(196.167511, 280.231991)"><g><path d="M 0.40625 -2.5 C 0.40625 -2.976562 0.5 -3.40625 0.6875 -3.78125 C 0.882812 -4.164062 1.148438 -4.460938 1.484375 -4.671875 C 1.816406 -4.878906 2.203125 -4.984375 2.640625 -4.984375 C 3.304688 -4.984375 3.84375 -4.75 4.25 -4.28125 C 4.664062 -3.820312 4.875 -3.210938 4.875 -2.453125 L 4.875 -2.390625 C 4.875 -1.910156 4.78125 -1.484375 4.59375 -1.109375 C 4.414062 -0.734375 4.15625 -0.4375 3.8125 -0.21875 C 3.46875 -0.0078125 3.078125 0.09375 2.640625 0.09375 C 1.972656 0.09375 1.429688 -0.132812 1.015625 -0.59375 C 0.609375 -1.0625 0.40625 -1.675781 0.40625 -2.4375 Z M 1.25 -2.390625 C 1.25 -1.847656 1.375 -1.410156 1.625 -1.078125 C 1.882812 -0.753906 2.222656 -0.59375 2.640625 -0.59375 C 3.066406 -0.59375 3.40625 -0.757812 3.65625 -1.09375 C 3.90625 -1.425781 4.03125 -1.894531 4.03125 -2.5 C 4.03125 -3.03125 3.898438 -3.460938 3.640625 -3.796875 C 3.390625 -4.128906 3.054688 -4.296875 2.640625 -4.296875 C 2.222656 -4.296875 1.882812 -4.128906 1.625 -3.796875 C 1.375 -3.472656 1.25 -3.003906 1.25 -2.390625 Z M 1.25 -2.390625 "/></g></g></g><g fill="#000000" fill-opacity="1"><g transform="translate(202.142643, 280.231991)"><g><path d="M 3 -4.140625 C 2.875 -4.160156 2.738281 -4.171875 2.59375 -4.171875 C 2.039062 -4.171875 1.664062 -3.9375 1.46875 -3.46875 L 1.46875 0 L 0.640625 0 L 0.640625 -4.890625 L 1.453125 -4.890625 L 1.46875 -4.328125 C 1.738281 -4.765625 2.125 -4.984375 2.625 -4.984375 C 2.789062 -4.984375 2.914062 -4.960938 3 -4.921875 Z M 3 -4.140625 "/></g></g></g><g fill="#000000" fill-opacity="1"><g transform="translate(205.970235, 280.231991)"><g><path d="M 2.671875 0.09375 C 2.003906 0.09375 1.460938 -0.125 1.046875 -0.5625 C 0.628906 -1 0.421875 -1.582031 0.421875 -2.3125 L 0.421875 -2.46875 C 0.421875 -2.945312 0.515625 -3.378906 0.703125 -3.765625 C 0.890625 -4.148438 1.148438 -4.445312 1.484375 -4.65625 C 1.816406 -4.875 2.175781 -4.984375 2.5625 -4.984375 C 3.195312 -4.984375 3.691406 -4.773438 4.046875 -4.359375 C 4.398438 -3.941406 4.578125 -3.34375 4.578125 -2.5625 L 4.578125 -2.203125 L 1.25 -2.203125 C 1.269531 -1.722656 1.410156 -1.332031 1.671875 -1.03125 C 1.941406 -0.738281 2.285156 -0.59375 2.703125 -0.59375 C 3.003906 -0.59375 3.253906 -0.648438 3.453125 -0.765625 C 3.660156 -0.890625 3.84375 -1.050781 4 -1.25 L 4.515625 -0.859375 C 4.097656 -0.222656 3.484375 0.09375 2.671875 0.09375 Z M 2.5625 -4.296875 C 2.21875 -4.296875 1.929688 -4.171875 1.703125 -3.921875 C 1.472656 -3.679688 1.332031 -3.335938 1.28125 -2.890625 L 3.734375 -2.890625 L 3.734375 -2.953125 C 3.710938 -3.378906 3.597656 -3.707031 3.390625 -3.9375 C 3.179688 -4.175781 2.90625 -4.296875 2.5625 -4.296875 Z M 2.5625 -4.296875 "/></g></g></g><g fill="#000000" fill-opacity="1"><g transform="translate(211.570113, 280.231991)"><g/></g></g><g fill="#000000" fill-opacity="1"><g transform="translate(214.556774, 280.231991)"><g><path d="M 0.4375 -2.484375 C 0.4375 -3.234375 0.613281 -3.835938 0.96875 -4.296875 C 1.320312 -4.753906 1.785156 -4.984375 2.359375 -4.984375 C 2.929688 -4.984375 3.382812 -4.785156 3.71875 -4.390625 L 3.71875 -6.953125 L 4.5625 -6.953125 L 4.5625 0 L 3.796875 0 L 3.75 -0.53125 C 3.414062 -0.113281 2.953125 0.09375 2.359375 0.09375 C 1.785156 0.09375 1.320312 -0.132812 0.96875 -0.59375 C 0.613281 -1.0625 0.4375 -1.671875 0.4375 -2.421875 Z M 1.265625 -2.390625 C 1.265625 -1.835938 1.378906 -1.40625 1.609375 -1.09375 C 1.835938 -0.78125 2.15625 -0.625 2.5625 -0.625 C 3.09375 -0.625 3.476562 -0.859375 3.71875 -1.328125 L 3.71875 -3.578125 C 3.46875 -4.046875 3.082031 -4.28125 2.5625 -4.28125 C 2.15625 -4.28125 1.835938 -4.117188 1.609375 -3.796875 C 1.378906 -3.484375 1.265625 -3.015625 1.265625 -2.390625 Z M 1.265625 -2.390625 "/></g></g></g><g fill="#000000" fill-opacity="1"><g transform="translate(220.473131, 280.231991)"><g><path d="M 1.546875 0 L 0.703125 0 L 0.703125 -4.890625 L 1.546875 -4.890625 Z M 0.640625 -6.1875 C 0.640625 -6.320312 0.679688 -6.4375 0.765625 -6.53125 C 0.847656 -6.625 0.96875 -6.671875 1.125 -6.671875 C 1.289062 -6.671875 1.414062 -6.625 1.5 -6.53125 C 1.582031 -6.4375 1.625 -6.320312 1.625 -6.1875 C 1.625 -6.050781 1.582031 -5.9375 1.5 -5.84375 C 1.414062 -5.757812 1.289062 -5.71875 1.125 -5.71875 C 0.96875 -5.71875 0.847656 -5.757812 0.765625 -5.84375 C 0.679688 -5.9375 0.640625 -6.050781 0.640625 -6.1875 Z M 0.640625 -6.1875 "/></g></g></g><g fill="#000000" fill-opacity="1"><g transform="translate(223.414581, 280.231991)"><g><path d="M 1.046875 0 L 1.046875 -4.25 L 0.265625 -4.25 L 0.265625 -4.890625 L 1.046875 -4.890625 L 1.046875 -5.390625 C 1.046875 -5.921875 1.1875 -6.328125 1.46875 -6.609375 C 1.75 -6.898438 2.144531 -7.046875 2.65625 -7.046875 C 2.84375 -7.046875 3.035156 -7.019531 3.234375 -6.96875 L 3.1875 -6.28125 C 3.039062 -6.3125 2.890625 -6.328125 2.734375 -6.328125 C 2.460938 -6.328125 2.25 -6.25 2.09375 -6.09375 C 1.945312 -5.9375 1.875 -5.707031 1.875 -5.40625 L 1.875 -4.890625 L 2.921875 -4.890625 L 2.921875 -4.25 L 1.875 -4.25 L 1.875 0 Z M 1.046875 0 "/></g></g></g><g fill="#000000" fill-opacity="1"><g transform="translate(227.323554, 280.231991)"><g><path d="M 1.046875 0 L 1.046875 -4.25 L 0.265625 -4.25 L 0.265625 -4.890625 L 1.046875 -4.890625 L 1.046875 -5.390625 C 1.046875 -5.921875 1.1875 -6.328125 1.46875 -6.609375 C 1.75 -6.898438 2.144531 -7.046875 2.65625 -7.046875 C 2.84375 -7.046875 3.035156 -7.019531 3.234375 -6.96875 L 3.1875 -6.28125 C 3.039062 -6.3125 2.890625 -6.328125 2.734375 -6.328125 C 2.460938 -6.328125 2.25 -6.25 2.09375 -6.09375 C 1.945312 -5.9375 1.875 -5.707031 1.875 -5.40625 L 1.875 -4.890625 L 2.921875 -4.890625 L 2.921875 -4.25 L 1.875 -4.25 L 1.875 0 Z M 1.046875 0 "/></g></g></g><g fill="#000000" fill-opacity="1"><g transform="translate(231.232527, 280.231991)"><g><path d="M 2.671875 0.09375 C 2.003906 0.09375 1.460938 -0.125 1.046875 -0.5625 C 0.628906 -1 0.421875 -1.582031 0.421875 -2.3125 L 0.421875 -2.46875 C 0.421875 -2.945312 0.515625 -3.378906 0.703125 -3.765625 C 0.890625 -4.148438 1.148438 -4.445312 1.484375 -4.65625 C 1.816406 -4.875 2.175781 -4.984375 2.5625 -4.984375 C 3.195312 -4.984375 3.691406 -4.773438 4.046875 -4.359375 C 4.398438 -3.941406 4.578125 -3.34375 4.578125 -2.5625 L 4.578125 -2.203125 L 1.25 -2.203125 C 1.269531 -1.722656 1.410156 -1.332031 1.671875 -1.03125 C 1.941406 -0.738281 2.285156 -0.59375 2.703125 -0.59375 C 3.003906 -0.59375 3.253906 -0.648438 3.453125 -0.765625 C 3.660156 -0.890625 3.84375 -1.050781 4 -1.25 L 4.515625 -0.859375 C 4.097656 -0.222656 3.484375 0.09375 2.671875 0.09375 Z M 2.5625 -4.296875 C 2.21875 -4.296875 1.929688 -4.171875 1.703125 -3.921875 C 1.472656 -3.679688 1.332031 -3.335938 1.28125 -2.890625 L 3.734375 -2.890625 L 3.734375 -2.953125 C 3.710938 -3.378906 3.597656 -3.707031 3.390625 -3.9375 C 3.179688 -4.175781 2.90625 -4.296875 2.5625 -4.296875 Z M 2.5625 -4.296875 "/></g></g></g><g fill="#000000" fill-opacity="1"><g transform="translate(236.832404, 280.231991)"><g><path d="M 3 -4.140625 C 2.875 -4.160156 2.738281 -4.171875 2.59375 -4.171875 C 2.039062 -4.171875 1.664062 -3.9375 1.46875 -3.46875 L 1.46875 0 L 0.640625 0 L 0.640625 -4.890625 L 1.453125 -4.890625 L 1.46875 -4.328125 C 1.738281 -4.765625 2.125 -4.984375 2.625 -4.984375 C 2.789062 -4.984375 2.914062 -4.960938 3 -4.921875 Z M 3 -4.140625 "/></g></g></g><g fill="#000000" fill-opacity="1"><g transform="translate(240.659997, 280.231991)"><g><path d="M 2.671875 0.09375 C 2.003906 0.09375 1.460938 -0.125 1.046875 -0.5625 C 0.628906 -1 0.421875 -1.582031 0.421875 -2.3125 L 0.421875 -2.46875 C 0.421875 -2.945312 0.515625 -3.378906 0.703125 -3.765625 C 0.890625 -4.148438 1.148438 -4.445312 1.484375 -4.65625 C 1.816406 -4.875 2.175781 -4.984375 2.5625 -4.984375 C 3.195312 -4.984375 3.691406 -4.773438 4.046875 -4.359375 C 4.398438 -3.941406 4.578125 -3.34375 4.578125 -2.5625 L 4.578125 -2.203125 L 1.25 -2.203125 C 1.269531 -1.722656 1.410156 -1.332031 1.671875 -1.03125 C 1.941406 -0.738281 2.285156 -0.59375 2.703125 -0.59375 C 3.003906 -0.59375 3.253906 -0.648438 3.453125 -0.765625 C 3.660156 -0.890625 3.84375 -1.050781 4 -1.25 L 4.515625 -0.859375 C 4.097656 -0.222656 3.484375 0.09375 2.671875 0.09375 Z M 2.5625 -4.296875 C 2.21875 -4.296875 1.929688 -4.171875 1.703125 -3.921875 C 1.472656 -3.679688 1.332031 -3.335938 1.28125 -2.890625 L 3.734375 -2.890625 L 3.734375 -2.953125 C 3.710938 -3.378906 3.597656 -3.707031 3.390625 -3.9375 C 3.179688 -4.175781 2.90625 -4.296875 2.5625 -4.296875 Z M 2.5625 -4.296875 "/></g></g></g><g fill="#000000" fill-opacity="1"><g transform="translate(246.259874, 280.231991)"><g><path d="M 1.421875 -4.890625 L 1.453125 -4.28125 C 1.828125 -4.75 2.316406 -4.984375 2.921875 -4.984375 C 3.953125 -4.984375 4.472656 -4.398438 4.484375 -3.234375 L 4.484375 0 L 3.640625 0 L 3.640625 -3.234375 C 3.640625 -3.585938 3.5625 -3.847656 3.40625 -4.015625 C 3.25 -4.191406 3.003906 -4.28125 2.671875 -4.28125 C 2.390625 -4.28125 2.144531 -4.207031 1.9375 -4.0625 C 1.738281 -3.914062 1.582031 -3.722656 1.46875 -3.484375 L 1.46875 0 L 0.640625 0 L 0.640625 -4.890625 Z M 1.421875 -4.890625 "/></g></g></g><g fill="#000000" fill-opacity="1"><g transform="translate(252.063202, 280.231991)"><g><path d="M 1.765625 -6.078125 L 1.765625 -4.890625 L 2.6875 -4.890625 L 2.6875 -4.25 L 1.765625 -4.25 L 1.765625 -1.21875 C 1.765625 -1.019531 1.804688 -0.867188 1.890625 -0.765625 C 1.972656 -0.671875 2.113281 -0.625 2.3125 -0.625 C 2.40625 -0.625 2.535156 -0.640625 2.703125 -0.671875 L 2.703125 0 C 2.484375 0.0625 2.269531 0.09375 2.0625 0.09375 C 1.6875 0.09375 1.40625 -0.0195312 1.21875 -0.25 C 1.03125 -0.476562 0.9375 -0.800781 0.9375 -1.21875 L 0.9375 -4.25 L 0.046875 -4.25 L 0.046875 -4.890625 L 0.9375 -4.890625 L 0.9375 -6.078125 Z M 1.765625 -6.078125 "/></g></g></g><g fill="#000000" fill-opacity="1"><g transform="translate(171.419124, 294.120916)"><g><path d="M 2.59375 -0.59375 C 2.894531 -0.59375 3.15625 -0.679688 3.375 -0.859375 C 3.601562 -1.046875 3.726562 -1.273438 3.75 -1.546875 L 4.546875 -1.546875 C 4.523438 -1.265625 4.425781 -0.992188 4.25 -0.734375 C 4.070312 -0.484375 3.832031 -0.28125 3.53125 -0.125 C 3.238281 0.0195312 2.925781 0.09375 2.59375 0.09375 C 1.925781 0.09375 1.394531 -0.128906 1 -0.578125 C 0.613281 -1.023438 0.421875 -1.632812 0.421875 -2.40625 L 0.421875 -2.546875 C 0.421875 -3.015625 0.503906 -3.4375 0.671875 -3.8125 C 0.847656 -4.1875 1.097656 -4.472656 1.421875 -4.671875 C 1.753906 -4.878906 2.144531 -4.984375 2.59375 -4.984375 C 3.144531 -4.984375 3.597656 -4.816406 3.953125 -4.484375 C 4.316406 -4.160156 4.515625 -3.738281 4.546875 -3.21875 L 3.75 -3.21875 C 3.726562 -3.53125 3.609375 -3.785156 3.390625 -3.984375 C 3.171875 -4.191406 2.90625 -4.296875 2.59375 -4.296875 C 2.164062 -4.296875 1.832031 -4.140625 1.59375 -3.828125 C 1.363281 -3.523438 1.25 -3.085938 1.25 -2.515625 L 1.25 -2.359375 C 1.25 -1.785156 1.363281 -1.347656 1.59375 -1.046875 C 1.832031 -0.742188 2.164062 -0.59375 2.59375 -0.59375 Z M 2.59375 -0.59375 "/></g></g></g><g fill="#000000" fill-opacity="1"><g transform="translate(176.960226, 294.120916)"><g><path d="M 0.40625 -2.5 C 0.40625 -2.976562 0.5 -3.40625 0.6875 -3.78125 C 0.882812 -4.164062 1.148438 -4.460938 1.484375 -4.671875 C 1.816406 -4.878906 2.203125 -4.984375 2.640625 -4.984375 C 3.304688 -4.984375 3.84375 -4.75 4.25 -4.28125 C 4.664062 -3.820312 4.875 -3.210938 4.875 -2.453125 L 4.875 -2.390625 C 4.875 -1.910156 4.78125 -1.484375 4.59375 -1.109375 C 4.414062 -0.734375 4.15625 -0.4375 3.8125 -0.21875 C 3.46875 -0.0078125 3.078125 0.09375 2.640625 0.09375 C 1.972656 0.09375 1.429688 -0.132812 1.015625 -0.59375 C 0.609375 -1.0625 0.40625 -1.675781 0.40625 -2.4375 Z M 1.25 -2.390625 C 1.25 -1.847656 1.375 -1.410156 1.625 -1.078125 C 1.882812 -0.753906 2.222656 -0.59375 2.640625 -0.59375 C 3.066406 -0.59375 3.40625 -0.757812 3.65625 -1.09375 C 3.90625 -1.425781 4.03125 -1.894531 4.03125 -2.5 C 4.03125 -3.03125 3.898438 -3.460938 3.640625 -3.796875 C 3.390625 -4.128906 3.054688 -4.296875 2.640625 -4.296875 C 2.222656 -4.296875 1.882812 -4.128906 1.625 -3.796875 C 1.375 -3.472656 1.25 -3.003906 1.25 -2.390625 Z M 1.25 -2.390625 "/></g></g></g><g fill="#000000" fill-opacity="1"><g transform="translate(182.935358, 294.120916)"><g><path d="M 1.546875 0 L 0.703125 0 L 0.703125 -6.953125 L 1.546875 -6.953125 Z M 1.546875 0 "/></g></g></g><g fill="#000000" fill-opacity="1"><g transform="translate(185.876808, 294.120916)"><g><path d="M 0.40625 -2.5 C 0.40625 -2.976562 0.5 -3.40625 0.6875 -3.78125 C 0.882812 -4.164062 1.148438 -4.460938 1.484375 -4.671875 C 1.816406 -4.878906 2.203125 -4.984375 2.640625 -4.984375 C 3.304688 -4.984375 3.84375 -4.75 4.25 -4.28125 C 4.664062 -3.820312 4.875 -3.210938 4.875 -2.453125 L 4.875 -2.390625 C 4.875 -1.910156 4.78125 -1.484375 4.59375 -1.109375 C 4.414062 -0.734375 4.15625 -0.4375 3.8125 -0.21875 C 3.46875 -0.0078125 3.078125 0.09375 2.640625 0.09375 C 1.972656 0.09375 1.429688 -0.132812 1.015625 -0.59375 C 0.609375 -1.0625 0.40625 -1.675781 0.40625 -2.4375 Z M 1.25 -2.390625 C 1.25 -1.847656 1.375 -1.410156 1.625 -1.078125 C 1.882812 -0.753906 2.222656 -0.59375 2.640625 -0.59375 C 3.066406 -0.59375 3.40625 -0.757812 3.65625 -1.09375 C 3.90625 -1.425781 4.03125 -1.894531 4.03125 -2.5 C 4.03125 -3.03125 3.898438 -3.460938 3.640625 -3.796875 C 3.390625 -4.128906 3.054688 -4.296875 2.640625 -4.296875 C 2.222656 -4.296875 1.882812 -4.128906 1.625 -3.796875 C 1.375 -3.472656 1.25 -3.003906 1.25 -2.390625 Z M 1.25 -2.390625 "/></g></g></g><g fill="#000000" fill-opacity="1"><g transform="translate(191.851939, 294.120916)"><g><path d="M 3 -4.140625 C 2.875 -4.160156 2.738281 -4.171875 2.59375 -4.171875 C 2.039062 -4.171875 1.664062 -3.9375 1.46875 -3.46875 L 1.46875 0 L 0.640625 0 L 0.640625 -4.890625 L 1.453125 -4.890625 L 1.46875 -4.328125 C 1.738281 -4.765625 2.125 -4.984375 2.625 -4.984375 C 2.789062 -4.984375 2.914062 -4.960938 3 -4.921875 Z M 3 -4.140625 "/></g></g></g><g fill="#000000" fill-opacity="1"><g transform="translate(195.679532, 294.120916)"><g><path d="M 3.484375 -1.296875 C 3.484375 -1.523438 3.394531 -1.703125 3.21875 -1.828125 C 3.050781 -1.953125 2.753906 -2.054688 2.328125 -2.140625 C 1.910156 -2.234375 1.578125 -2.34375 1.328125 -2.46875 C 1.078125 -2.601562 0.890625 -2.753906 0.765625 -2.921875 C 0.648438 -3.097656 0.59375 -3.304688 0.59375 -3.546875 C 0.59375 -3.953125 0.757812 -4.289062 1.09375 -4.5625 C 1.4375 -4.84375 1.875 -4.984375 2.40625 -4.984375 C 2.957031 -4.984375 3.40625 -4.835938 3.75 -4.546875 C 4.101562 -4.265625 4.28125 -3.898438 4.28125 -3.453125 L 3.4375 -3.453125 C 3.4375 -3.679688 3.335938 -3.878906 3.140625 -4.046875 C 2.941406 -4.210938 2.695312 -4.296875 2.40625 -4.296875 C 2.101562 -4.296875 1.863281 -4.226562 1.6875 -4.09375 C 1.519531 -3.96875 1.4375 -3.796875 1.4375 -3.578125 C 1.4375 -3.378906 1.515625 -3.226562 1.671875 -3.125 C 1.828125 -3.019531 2.113281 -2.921875 2.53125 -2.828125 C 2.957031 -2.734375 3.296875 -2.617188 3.546875 -2.484375 C 3.804688 -2.359375 4 -2.203125 4.125 -2.015625 C 4.257812 -1.835938 4.328125 -1.617188 4.328125 -1.359375 C 4.328125 -0.921875 4.148438 -0.566406 3.796875 -0.296875 C 3.441406 -0.0351562 2.988281 0.09375 2.4375 0.09375 C 2.039062 0.09375 1.691406 0.0234375 1.390625 -0.109375 C 1.085938 -0.253906 0.851562 -0.453125 0.6875 -0.703125 C 0.519531 -0.953125 0.4375 -1.21875 0.4375 -1.5 L 1.265625 -1.5 C 1.285156 -1.21875 1.398438 -0.992188 1.609375 -0.828125 C 1.816406 -0.671875 2.09375 -0.59375 2.4375 -0.59375 C 2.75 -0.59375 3 -0.65625 3.1875 -0.78125 C 3.382812 -0.914062 3.484375 -1.085938 3.484375 -1.296875 Z M 3.484375 -1.296875 "/></g></g></g><g fill="#000000" fill-opacity="1"><g transform="translate(201.148296, 294.120916)"><g><path d="M 0.65625 -0.4375 C 0.65625 -0.582031 0.695312 -0.703125 0.78125 -0.796875 C 0.863281 -0.898438 0.988281 -0.953125 1.15625 -0.953125 C 1.332031 -0.953125 1.460938 -0.898438 1.546875 -0.796875 C 1.640625 -0.703125 1.6875 -0.582031 1.6875 -0.4375 C 1.6875 -0.300781 1.640625 -0.1875 1.546875 -0.09375 C 1.460938 0 1.332031 0.046875 1.15625 0.046875 C 0.988281 0.046875 0.863281 0 0.78125 -0.09375 C 0.695312 -0.1875 0.65625 -0.300781 0.65625 -0.4375 Z M 0.65625 -0.4375 "/></g></g></g></svg>